Coordinates
version=1
nRows=28
nColumns=34
inDegrees=yes
inDegrees=no

Units are S.I. units (second, meters, Newtons, ...)
If the header above contains a line with 'inDegrees', this indicates whether rotational values are in degrees (yes) or radians (no).

endheader
time	pelvis_tilt	pelvis_list	pelvis_rotation	pelvis_tx	pelvis_ty	pelvis_tz	hip_flexion_r	hip_adduction_r	hip_rotation_r	knee_angle_r	ankle_angle_r	subtalar_angle_r	mtp_angle_r	hip_flexion_l	hip_adduction_l	hip_rotation_l	knee_angle_l	ankle_angle_l	subtalar_angle_l	mtp_angle_l	lumbar_extension	lumbar_bending	lumbar_rotation	arm_flex_r	arm_add_r	arm_rot_r	elbow_flex_r	pro_sup_r	arm_flex_l	arm_add_l	arm_rot_l	elbow_flex_l	pro_sup_l
11.800000 -0.140672 -0.047048 0.101175 0.002522 0.017663 -0.007936 0.154611 -0.110475 -0.524220 0.228924 0.041070 -0.319018 0.000000 0.150505 -0.191507 -0.319077 0.178702 0.032752 -0.104204 0.000000 -0.045445 0.066786 -0.035351 0.092443 -0.300015 0.607528 1.697023 1.650479 -0.014484 -0.242695 0.447749 1.849694 1.416351
11.816667 -0.143188 -0.050127 0.102386 0.002564 0.017558 -0.007945 0.156852 -0.108965 -0.515957 0.233696 0.036026 -0.340060 0.000000 0.152354 -0.193356 -0.311807 0.181040 0.036381 -0.117143 0.000000 -0.027047 0.069625 -0.016568 0.058956 -0.310037 0.593060 1.709476 1.620559 0.001701 -0.245025 0.480864 1.818555 1.406648
11.833333 -0.139693 -0.051111 0.103244 0.002603 0.017569 -0.007959 0.152131 -0.108641 -0.514803 0.236289 0.043365 -0.345065 0.000000 0.147096 -0.194234 -0.308893 0.183365 0.044101 -0.119963 0.000000 -0.020733 0.069917 -0.019325 0.050191 -0.313045 0.595033 1.711050 1.619394 -0.005063 -0.249016 0.483802 1.814661 1.406342
11.850000 -0.138748 -0.051704 0.105660 0.002618 0.017649 -0.007966 0.147842 -0.108050 -0.513088 0.235444 0.044851 -0.346871 0.000000 0.145981 -0.194604 -0.307566 0.185026 0.048358 -0.123007 0.000000 -0.012824 0.069614 -0.020664 0.044662 -0.316393 0.597075 1.713374 1.618030 -0.009360 -0.254780 0.486962 1.807091 1.406207
11.866667 -0.137633 -0.052488 0.105341 0.002618 0.017627 -0.007979 0.146323 -0.108033 -0.511917 0.237313 0.045079 -0.347146 0.000000 0.144222 -0.195627 -0.304871 0.186623 0.048971 -0.122699 0.000000 -0.008024 0.069026 -0.019798 0.044725 -0.316785 0.597544 1.714662 1.617726 -0.010190 -0.256083 0.487799 1.805494 1.406248
11.883333 -0.147799 -0.055467 0.107621 0.002647 0.017615 -0.007996 0.155841 -0.106326 -0.508602 0.236328 0.043132 -0.354696 0.000000 0.158599 -0.196604 -0.295756 0.191799 0.051136 -0.132081 0.000000 0.015171 0.071265 -0.016542 0.039821 -0.326820 0.608197 1.723169 1.609595 0.001006 -0.260249 0.508569 1.775662 1.407788
11.900000 -0.148895 -0.054859 0.107291 0.002707 0.017676 -0.008002 0.151479 -0.105451 -0.507657 0.228947 0.038392 -0.351976 0.000000 0.155715 -0.194969 -0.295800 0.186866 0.046756 -0.131467 0.000000 0.024692 0.070732 -0.012975 0.034860 -0.325762 0.606752 1.723669 1.606367 0.001972 -0.264992 0.510890 1.773147 1.408211
11.916667 -0.150650 -0.055213 0.108152 0.002731 0.017762 -0.007978 0.146697 -0.101817 -0.507066 0.218196 0.034686 -0.348243 0.000000 0.154559 -0.194925 -0.294506 0.182316 0.042372 -0.129189 0.000000 0.032969 0.069614 -0.009413 0.035446 -0.324410 0.605313 1.724614 1.604400 0.005578 -0.267802 0.510744 1.771443 1.408463
11.933333 -0.150198 -0.056040 0.109466 0.002762 0.017773 -0.007987 0.138452 -0.097334 -0.509705 0.205876 0.025916 -0.341127 0.000000 0.151566 -0.195836 -0.296744 0.178619 0.034303 -0.126919 0.000000 0.041937 0.069967 -0.004940 0.033673 -0.322919 0.602477 1.723631 1.600708 0.007963 -0.269659 0.512525 1.767440 1.409075
11.950000 -0.150991 -0.055381 0.108758 0.002753 0.017776 -0.008031 0.137449 -0.097551 -0.510899 0.199430 0.025720 -0.340329 0.000000 0.149846 -0.193740 -0.294997 0.175667 0.034543 -0.125668 0.000000 0.046782 0.071237 0.000643 0.039325 -0.321436 0.600451 1.725093 1.600005 0.009353 -0.269284 0.511588 1.768294 1.409164
11.966667 -0.145676 -0.058319 0.107818 0.002718 0.017779 -0.007976 0.127951 -0.090758 -0.514434 0.188233 0.025819 -0.322762 0.000000 0.140490 -0.197152 -0.297897 0.168267 0.033434 -0.118002 0.000000 0.044172 0.072964 0.010927 0.039019 -0.319091 0.588173 1.726240 1.582555 0.019541 -0.263868 0.511883 1.762834 1.412697
11.983333 -0.147327 -0.058418 0.107146 0.002785 0.017767 -0.007993 0.126957 -0.089788 -0.515859 0.183279 0.025186 -0.322092 0.000000 0.140066 -0.196812 -0.296856 0.166279 0.033329 -0.116939 0.000000 0.048419 0.072727 0.015997 0.045244 -0.316421 0.587026 1.728216 1.581625 0.022023 -0.263529 0.511257 1.764682 1.412917
12.000000 -0.149061 -0.059625 0.106601 0.002791 0.017773 -0.008002 0.126425 -0.087555 -0.517038 0.177929 0.023682 -0.320356 0.000000 0.138995 -0.197397 -0.297451 0.162181 0.033067 -0.116263 0.000000 0.052588 0.072831 0.019504 0.052894 -0.313920 0.585032 1.729887 1.580554 0.026424 -0.261291 0.510786 1.767067 1.413191
12.016667 -0.150292 -0.060448 0.105664 0.002776 0.017825 -0.007989 0.125471 -0.085041 -0.516442 0.171509 0.022190 -0.317258 0.000000 0.138796 -0.197990 -0.296931 0.159726 0.031512 -0.114352 0.000000 0.054710 0.071925 0.023598 0.061358 -0.310679 0.582895 1.730859 1.579303 0.030290 -0.258018 0.510735 1.768712 1.413506
12.033333 -0.145108 -0.061530 0.102898 0.002760 0.017799 -0.008022 0.118779 -0.082922 -0.517039 0.167889 0.021428 -0.305821 0.000000 0.131787 -0.199376 -0.305069 0.158566 0.031089 -0.109986 0.000000 0.048560 0.072967 0.030377 0.075302 -0.308203 0.581979 1.723676 1.569939 0.040819 -0.251273 0.512669 1.765368 1.416012
12.050000 -0.146516 -0.061094 0.103214 0.002762 0.017808 -0.007987 0.119496 -0.082557 -0.517058 0.165151 0.022752 -0.305212 0.000000 0.134528 -0.197968 -0.305894 0.158570 0.030617 -0.109414 0.000000 0.049030 0.071034 0.032491 0.085093 -0.304629 0.579676 1.725999 1.568711 0.045939 -0.246621 0.512583 1.766709 1.416299
12.066667 -0.146630 -0.060786 0.102227 0.002745 0.017769 -0.007999 0.122824 -0.084108 -0.515270 0.169730 0.025826 -0.303727 0.000000 0.138410 -0.197991 -0.308903 0.164004 0.030430 -0.109505 0.000000 0.045013 0.069555 0.034491 0.097548 -0.299937 0.577185 1.727124 1.565765 0.053665 -0.239141 0.512186 1.767486 1.416961
12.083333 -0.147375 -0.060232 0.100824 0.002724 0.017838 -0.008021 0.126273 -0.086045 -0.514950 0.173910 0.027267 -0.301728 0.000000 0.141579 -0.197510 -0.311129 0.167131 0.029820 -0.108609 0.000000 0.041925 0.068015 0.037433 0.108515 -0.295583 0.575129 1.728389 1.562751 0.059867 -0.232634 0.510993 1.768238 1.417573
12.100000 -0.148557 -0.060320 0.098722 0.002686 0.017814 -0.008023 0.131103 -0.087406 -0.513069 0.176606 0.031230 -0.299754 0.000000 0.144973 -0.198226 -0.312231 0.170103 0.031329 -0.107246 0.000000 0.036454 0.065991 0.039317 0.119338 -0.290846 0.573143 1.731541 1.558063 0.066860 -0.225060 0.508699 1.770684 1.418505
12.116667 -0.147247 -0.060534 0.097889 0.002668 0.017824 -0.008030 0.131529 -0.088296 -0.517377 0.176823 0.036061 -0.288619 0.000000 0.145779 -0.199344 -0.315678 0.172910 0.036476 -0.095849 0.000000 0.026614 0.065652 0.031721 0.138700 -0.284078 0.583152 1.734469 1.433953 0.059913 -0.217533 0.487246 1.787694 1.449100
12.133333 -0.150305 -0.060797 0.096489 0.002635 0.017898 -0.008049 0.137482 -0.089379 -0.516021 0.176858 0.033413 -0.287385 0.000000 0.151191 -0.199285 -0.315846 0.174670 0.034774 -0.096312 0.000000 0.022225 0.064223 0.030544 0.148593 -0.277495 0.581850 1.739559 1.433302 0.068609 -0.208415 0.487331 1.789130 1.449198
12.150000 -0.152374 -0.061529 0.094505 0.002585 0.017843 -0.008052 0.145152 -0.091182 -0.515670 0.181134 0.030697 -0.287483 0.000000 0.157584 -0.200274 -0.315957 0.180755 0.035325 -0.098441 0.000000 0.014447 0.063672 0.029395 0.161717 -0.271382 0.579234 1.745322 1.432441 0.080797 -0.199292 0.486081 1.791723 1.449254
12.166667 -0.154169 -0.061679 0.093882 0.002562 0.017861 -0.008048 0.151882 -0.093357 -0.515493 0.185856 0.028061 -0.288052 0.000000 0.165103 -0.200787 -0.317286 0.188148 0.035508 -0.101884 0.000000 0.005452 0.062389 0.026999 0.175163 -0.266249 0.576182 1.750810 1.431477 0.094380 -0.190538 0.484812 1.794342 1.449297
12.183333 -0.155974 -0.061750 0.092087 0.002518 0.017881 -0.008046 0.160000 -0.095624 -0.513567 0.191468 0.025758 -0.287705 0.000000 0.172992 -0.201571 -0.315596 0.195744 0.035388 -0.104082 0.000000 -0.004579 0.060939 0.024832 0.190677 -0.259999 0.573473 1.756432 1.430524 0.111460 -0.182516 0.483018 1.797815 1.449322
12.200000 -0.156516 -0.061133 0.089875 0.002461 0.017917 -0.008049 0.169182 -0.099010 -0.510643 0.200283 0.026264 -0.290316 0.000000 0.181684 -0.201984 -0.315658 0.206121 0.036921 -0.112321 0.000000 -0.020125 0.059543 0.023861 0.208614 -0.255881 0.573749 1.763944 1.428827 0.129415 -0.176297 0.483174 1.802552 1.449617
12.216667 -0.157655 -0.060956 0.088497 0.002413 0.017862 -0.008047 0.178781 -0.102240 -0.508343 0.209345 0.026212 -0.291952 0.000000 0.191632 -0.203088 -0.315407 0.217498 0.037162 -0.118528 0.000000 -0.033589 0.058076 0.021626 0.229680 -0.250651 0.573610 1.768884 1.427465 0.151547 -0.168752 0.485153 1.807481 1.450005
12.233333 -0.157475 -0.060704 0.086116 0.002349 0.017857 -0.008051 0.190267 -0.106079 -0.501454 0.223563 0.028382 -0.300961 0.000000 0.202254 -0.204561 -0.308941 0.232354 0.036729 -0.135770 0.000000 -0.049650 0.055885 0.020115 0.255460 -0.250303 0.582805 1.776498 1.423401 0.172334 -0.163665 0.495216 1.816555 1.451460
12.250000 -0.157486 -0.062082 0.083957 0.002276 0.017796 -0.008051 0.205701 -0.110521 -0.497065 0.246069 0.036317 -0.308037 0.000000 0.217600 -0.209933 -0.307222 0.256243 0.043187 -0.144230 0.000000 -0.067430 0.056658 0.018687 0.279850 -0.245440 0.578653 1.779082 1.422121 0.192651 -0.154460 0.494539 1.821746 1.451685
